<?xml version="1.0" encoding="UTF-8"?>
<svg xmlns="http://www.w3.org/2000/svg" xmlns:xlink="http://www.w3.org/1999/xlink" version="1.1" viewBox="0 0 160 24">
  <!-- Generator: Adobe Illustrator 29.0.0, SVG Export Plug-In . SVG Version: 2.1.0 Build 186)  -->
  <defs>
    <style>
      .st0 {
        fill: url(#Gradiente_sem_nome);
      }

      .st1 {
        fill: url(#Gradiente_sem_nome_4);
      }

      .st2 {
        fill: url(#Gradiente_sem_nome_6);
      }

      .st3 {
        stroke: url(#Gradiente_sem_nome_5);
      }

      .st3, .st4, .st5 {
        fill: none;
        stroke-opacity: 0;
        stroke-width: 0px;
      }

      .st4 {
        stroke: url(#Gradiente_sem_nome_8);
      }

      .st5 {
        stroke: url(#Gradiente_sem_nome_3);
      }

      .st6 {
        fill-opacity: .2;
      }

      .st6, .st7, .st8, .st9, .st10 {
        isolation: isolate;
      }

      .st6, .st8, .st9, .st10 {
        mix-blend-mode: hard-light;
      }

      .st11 {
        fill: #fff;
      }

      .st12 {
        fill: #002719;
      }

      .st8 {
        fill: url(#Gradiente_sem_nome_2);
      }

      .st8, .st9, .st10 {
        fill-opacity: .5;
      }

      .st9 {
        fill: url(#Gradiente_sem_nome_7);
      }

      .st13 {
        fill: #001e13;
      }
    </style>
    <radialGradient id="Gradiente_sem_nome" data-name="Gradiente sem nome" cx="-209.1" cy="408.1" fx="-209.1" fy="408.1" r="1" gradientTransform="translate(4957.8 6508.3) rotate(-10) scale(18 -17.8)" gradientUnits="userSpaceOnUse">
      <stop offset="0" stop-color="#00b0bb"/>
      <stop offset="1" stop-color="#00db65"/>
    </radialGradient>
    <linearGradient id="Gradiente_sem_nome_2" data-name="Gradiente sem nome 2" x1="8.3" y1="18.7" x2="2.5" y2="4.8" gradientTransform="translate(0 23.9) scale(1 -1)" gradientUnits="userSpaceOnUse">
      <stop offset="0" stop-color="#18e299"/>
      <stop offset="1" stop-color="#000"/>
    </linearGradient>
    <linearGradient id="Gradiente_sem_nome_3" data-name="Gradiente sem nome 3" x1="7.9" y1="15.9" x2="1.8" y2="5.1" gradientTransform="translate(0 23.9) scale(1 -1)" gradientUnits="userSpaceOnUse">
      <stop offset="0" stop-color="#000"/>
      <stop offset="1" stop-color="#000" stop-opacity="0"/>
    </linearGradient>
    <radialGradient id="Gradiente_sem_nome_4" data-name="Gradiente sem nome 4" cx="-232.9" cy="419.8" fx="-232.9" fy="419.8" r="1" gradientTransform="translate(10922.3 -2403.5) rotate(-75.8) scale(21.6 -23.8)" gradientUnits="userSpaceOnUse">
      <stop offset="0" stop-color="#0bb"/>
      <stop offset=".7" stop-color="#00db65"/>
    </radialGradient>
    <linearGradient id="Gradiente_sem_nome_5" data-name="Gradiente sem nome 5" x1="7.6" y1="18" x2="15.6" y2="7.5" gradientTransform="translate(0 23.9) scale(1 -1)" gradientUnits="userSpaceOnUse">
      <stop offset="0" stop-color="#000"/>
      <stop offset="1" stop-color="#000" stop-opacity="0"/>
    </linearGradient>
    <radialGradient id="Gradiente_sem_nome_6" data-name="Gradiente sem nome 6" cx="-213.7" cy="406.4" fx="-213.7" fy="406.4" r="1" gradientTransform="translate(6174.6 5241.3) rotate(-20.4) scale(18.6 -17.3)" gradientUnits="userSpaceOnUse">
      <stop offset="0" stop-color="#00b0bb"/>
      <stop offset="1" stop-color="#00db65"/>
    </radialGradient>
    <linearGradient id="Gradiente_sem_nome_7" data-name="Gradiente sem nome 7" x1="18.4" y1="9.8" x2="11.6" y2="-.2" gradientTransform="translate(0 23.9) scale(1 -1)" gradientUnits="userSpaceOnUse">
      <stop offset="0" stop-color="#00b1bc"/>
      <stop offset="1" stop-color="#000"/>
    </linearGradient>
    <linearGradient id="Gradiente_sem_nome_8" data-name="Gradiente sem nome 8" x1="16.8" y1="10.9" x2="14.2" y2="0" gradientTransform="translate(0 23.9) scale(1 -1)" gradientUnits="userSpaceOnUse">
      <stop offset="0" stop-color="#000"/>
      <stop offset="1" stop-color="#000" stop-opacity="0"/>
    </linearGradient>
  </defs>
  <g class="st7">
    <g id="Camada_1">
      <path class="st11" d="M8,21.1c-3.1,0-5.7-1.7-7-4.8C-.3,13.1.1,9.2,1.7,5.6c3.1,0,5.7,1.7,7,4.8,1.3,3.2.9,7.1-.8,10.7Z"/>
      <path class="st0" d="M8,21.1c-3.1,0-5.7-1.7-7-4.8C-.3,13.1.1,9.2,1.7,5.6c3.1,0,5.7,1.7,7,4.8,1.3,3.2.9,7.1-.8,10.7Z"/>
      <path class="st10" d="M8,21.1c-3.1,0-5.7-1.7-7-4.8C-.3,13.1.1,9.2,1.7,5.6c3.1,0,5.7,1.7,7,4.8,1.3,3.2.9,7.1-.8,10.7Z"/>
      <path class="st8" d="M8,21.1c-3.1,0-5.7-1.7-7-4.8C-.3,13.1.1,9.2,1.7,5.6c3.1,0,5.7,1.7,7,4.8,1.3,3.2.9,7.1-.8,10.7Z"/>
      <path class="st5" d="M7.9,21.1c-3,0-5.7-1.7-6.9-4.8C-.2,13.1.1,9.2,1.8,5.6c3,0,5.7,1.7,6.9,4.8,1.3,3.2.9,7.1-.7,10.6Z"/>
      <path class="st11" d="M7.3,21.3c4-1,7.6-3.9,9.3-8,1.7-4.1,1.3-8.6-.8-12.3-4,1-7.6,3.9-9.3,8-1.7,4.1-1.3,8.6.8,12.3Z"/>
      <path class="st1" d="M7.3,21.3c4-1,7.6-3.9,9.3-8,1.7-4.1,1.3-8.6-.8-12.3-4,1-7.6,3.9-9.3,8-1.7,4.1-1.3,8.6.8,12.3Z"/>
      <path class="st3" d="M16.6,13.2c-1.7,4.1-5.3,7-9.3,8-2.1-3.6-2.5-8.1-.8-12.2,1.7-4.1,5.3-7,9.3-8,2.1,3.6,2.5,8.1.8,12.2Z"/>
      <path class="st11" d="M7.2,21.2c2.6,2,6,2.7,9.3,1.6,3.4-1.1,5.9-3.9,7.2-7.2-2.6-2-6-2.7-9.3-1.6-3.4,1.1-5.9,3.9-7.2,7.2Z"/>
      <path class="st2" d="M7.2,21.2c2.6,2,6,2.7,9.3,1.6,3.4-1.1,5.9-3.9,7.2-7.2-2.6-2-6-2.7-9.3-1.6-3.4,1.1-5.9,3.9-7.2,7.2Z"/>
      <path class="st6" d="M7.2,21.2c2.6,2,6,2.7,9.3,1.6,3.4-1.1,5.9-3.9,7.2-7.2-2.6-2-6-2.7-9.3-1.6-3.4,1.1-5.9,3.9-7.2,7.2Z"/>
      <path class="st9" d="M7.2,21.2c2.6,2,6,2.7,9.3,1.6,3.4-1.1,5.9-3.9,7.2-7.2-2.6-2-6-2.7-9.3-1.6-3.4,1.1-5.9,3.9-7.2,7.2Z"/>
      <path class="st4" d="M16.6,22.8c-3.4,1.1-6.8.4-9.3-1.6,1.2-3.3,3.8-6,7.1-7.1,3.4-1.1,6.8-.4,9.3,1.6-1.2,3.3-3.8,6-7.1,7.1Z"/>
      <g>
        <path class="st13" d="M39.7,18.4c-.6-1.4-1.2-2.9-1.9-4.3-.7-1.4-1.4-2.9-2.2-4.3v8.6h-2.3V5.4h2.1c.4.6.8,1.3,1.2,2,.4.7.8,1.4,1.1,2.2.4.7.7,1.4,1,2.1.3.7.6,1.3.8,1.8V5.4h2.3v13h-2.1Z"/>
        <path class="st13" d="M52.7,13.5c0,.8-.1,1.5-.3,2.1-.2.6-.5,1.2-.9,1.6-.4.5-.9.8-1.5,1.1s-1.2.4-1.9.4-1.3-.1-1.9-.4-1.1-.6-1.5-1.1c-.4-.5-.7-1-1-1.6-.2-.6-.3-1.3-.3-2.1s.1-1.5.3-2.1.6-1.2,1-1.6c.4-.5.9-.8,1.5-1s1.2-.4,1.9-.4,1.3.1,1.9.4,1.1.6,1.5,1c.4.5.7,1,1,1.6.2.6.3,1.3.3,2.1ZM46,13.5c0,.9.2,1.6.5,2.1s.8.8,1.5.8,1.2-.3,1.5-.8c.3-.5.5-1.3.5-2.1s-.2-1.6-.5-2.1-.8-.8-1.5-.8-1.2.3-1.5.8c-.3.5-.5,1.2-.5,2.1Z"/>
        <path class="st13" d="M62.4,11.2c-.2,0-.4,0-.6-.1s-.5,0-.7-.1c-.2,0-.5,0-.7,0-.2,0-.4,0-.6,0-.4,0-.7,0-1.1,0-.4,0-.7.1-1.1.2v7.3h-2.6v-9.2c.7-.3,1.4-.5,2.1-.6.7-.2,1.6-.2,2.5-.2s.3,0,.6,0c.3,0,.5,0,.8,0s.6,0,.9.1c.3,0,.6.1.8.2l-.5,2.4Z"/>
        <path class="st13" d="M73.6,13.5c0,.8-.1,1.5-.3,2.1s-.5,1.2-.9,1.6-.9.8-1.5,1c-.6.2-1.3.4-2,.4s-1.4,0-2.1-.1-1.3-.2-1.8-.4V4.3l2.6-.4v4.9c.4-.2.7-.3,1.1-.3s.7,0,1,0c.6,0,1.2.1,1.7.4.5.2.9.6,1.2,1,.3.5.6,1,.7,1.6.2.6.3,1.3.3,2.1ZM71,13.4c0-.9-.2-1.6-.5-2.1-.3-.5-.8-.7-1.4-.7s-.6,0-.8.1c-.3,0-.5.2-.7.3v5.4c.2,0,.4,0,.6,0,.2,0,.4,0,.6,0,.7,0,1.2-.2,1.6-.7.4-.5.6-1.2.6-2.3Z"/>
        <path class="st13" d="M79.3,8.3c.8,0,1.5,0,2,.3s1,.5,1.3.8c.3.3.6.8.7,1.3s.2,1.1.2,1.7v5.9c-.4,0-.9.2-1.7.3-.7.1-1.6.2-2.5.2s-1.2,0-1.7-.2c-.5-.1-.9-.3-1.3-.6-.4-.3-.6-.6-.8-1-.2-.4-.3-.9-.3-1.5s.1-1.1.3-1.4c.2-.4.5-.7.9-.9s.8-.4,1.3-.5,1-.2,1.5-.2,1.3,0,1.8.2v-.3c0-.5-.2-.9-.5-1.2-.3-.3-.8-.5-1.6-.5s-1,0-1.4.1c-.5,0-.8.2-1.1.3l-.4-2.1c.3-.1.8-.2,1.4-.3.6,0,1.2-.1,1.8-.1ZM79.5,16.6c.3,0,.6,0,.8,0s.5,0,.7,0v-2.3c-.2,0-.4,0-.6,0-.2,0-.5,0-.7,0s-.5,0-.8,0-.5,0-.7.2-.3.2-.5.4c-.1.2-.2.4-.2.6,0,.4.2.8.5,1,.3.2.8.3,1.3.3Z"/>
        <path class="st13" d="M89.8,8.3c.8,0,1.5,0,2,.3s1,.5,1.3.8c.3.3.6.8.7,1.3s.2,1.1.2,1.7v5.9c-.4,0-.9.2-1.7.3-.7.1-1.6.2-2.5.2s-1.2,0-1.7-.2c-.5-.1-.9-.3-1.3-.6-.4-.3-.6-.6-.8-1-.2-.4-.3-.9-.3-1.5s.1-1.1.3-1.4c.2-.4.5-.7.9-.9s.8-.4,1.3-.5,1-.2,1.5-.2,1.3,0,1.8.2v-.3c0-.5-.2-.9-.5-1.2-.3-.3-.8-.5-1.6-.5s-1,0-1.4.1c-.5,0-.8.2-1.1.3l-.4-2.1c.3-.1.8-.2,1.4-.3.6,0,1.2-.1,1.8-.1ZM90,16.6c.3,0,.6,0,.8,0s.5,0,.7,0v-2.3c-.2,0-.4,0-.6,0-.2,0-.5,0-.7,0s-.5,0-.8,0-.5,0-.7.2c-.2,0-.3.2-.5.4s-.2.4-.2.6c0,.4.2.8.5,1,.3.2.8.3,1.3.3Z"/>
        <path class="st13" d="M100,16.5c.6,0,1.1,0,1.4-.1.3,0,.5-.3.5-.6s0-.3-.2-.5c-.1-.1-.3-.2-.4-.3-.2,0-.4-.2-.7-.3s-.5-.2-.8-.3c-.4-.1-.8-.2-1.2-.4-.4-.1-.7-.3-1.1-.6-.3-.2-.6-.5-.8-.9-.2-.3-.3-.8-.3-1.3s0-.8.2-1.2c.2-.4.4-.7.8-1,.3-.3.8-.5,1.3-.7.5-.2,1.2-.2,1.9-.2s1.2,0,1.8.1c.6,0,1,.2,1.4.4l-.4,2.2c-.2,0-.6-.2-1.1-.3s-1.1-.2-1.7-.2-1.1,0-1.3.2c-.2.2-.3.3-.3.5s0,.3.2.4c.1.1.2.2.4.3.2,0,.4.2.6.3.2,0,.5.2.7.3.4.1.8.3,1.2.4s.8.3,1.1.6c.3.2.6.5.8.9.2.4.3.8.3,1.3s0,.8-.2,1.2-.4.7-.8.9c-.4.3-.8.5-1.4.6-.6.2-1.3.2-2.1.2s-1.6,0-2.2-.3c-.6-.2-1.1-.4-1.4-.5l.4-2.2c.5.2,1,.4,1.6.5.6.2,1.1.3,1.7.3Z"/>
      </g>
      <g>
        <path class="st12" d="M122,11.9c0,1.2-.2,2.2-.5,3.1-.3.8-.7,1.5-1.2,2-.5.5-1.1.9-1.9,1.1-.7.2-1.5.4-2.3.4s-1.7-.1-2.6-.3V5.6c.9-.2,1.8-.3,2.6-.3s1.6.1,2.3.4c.7.2,1.3.6,1.9,1.2.5.5.9,1.2,1.2,2.1.3.8.5,1.9.5,3ZM115.2,17c.3,0,.7,0,1.1,0,.6,0,1.2,0,1.7-.3.5-.2.9-.5,1.2-.9s.6-.9.8-1.6c.2-.7.3-1.4.3-2.3,0-1.8-.3-3.1-1-3.9-.7-.8-1.7-1.2-3-1.2s-.4,0-.5,0c-.2,0-.3,0-.5,0v10.1Z"/>
        <path class="st12" d="M132.5,13.6c0,.8-.1,1.5-.3,2.1-.2.6-.5,1.2-.9,1.6s-.9.8-1.4,1-1.1.4-1.8.4-1.2-.1-1.8-.4-1-.6-1.4-1c-.4-.4-.7-1-.9-1.6-.2-.6-.3-1.3-.3-2.1s.1-1.5.3-2.1c.2-.6.5-1.2.9-1.6.4-.4.9-.8,1.4-1,.5-.2,1.1-.4,1.8-.4s1.2.1,1.8.4c.5.2,1,.6,1.4,1s.7,1,.9,1.6c.2.6.3,1.3.3,2.1ZM130.7,13.6c0-1.1-.2-2-.7-2.6-.5-.6-1.1-1-1.9-1s-1.4.3-1.9,1c-.5.6-.7,1.5-.7,2.6s.2,2,.7,2.6c.5.6,1.1,1,1.9,1s1.5-.3,1.9-1c.5-.6.7-1.5.7-2.6Z"/>
        <path class="st12" d="M134.4,13.6c0-.9.1-1.6.4-2.3.3-.6.7-1.2,1.2-1.6.5-.4,1.1-.7,1.7-.9.7-.2,1.3-.3,2.1-.3s.9,0,1.4,0,1,.2,1.5.3l-.4,1.5c-.5-.2-.9-.3-1.3-.3-.4,0-.8,0-1.2,0s-1,0-1.4.2c-.4.1-.8.3-1.2.6s-.6.7-.8,1.1c-.2.5-.3,1-.3,1.6s0,1.1.3,1.6c.2.4.4.8.8,1.1s.7.5,1.2.6,1,.2,1.5.2.9,0,1.3,0,.9-.2,1.4-.3l.3,1.4c-.5.2-1,.3-1.5.4-.5,0-1.1.1-1.6.1s-1.5-.1-2.2-.3-1.2-.5-1.7-1c-.5-.4-.8-.9-1.1-1.6-.3-.6-.4-1.4-.4-2.2Z"/>
        <path class="st12" d="M151.2,16c0-.3-.1-.6-.4-.9-.3-.2-.6-.4-1.1-.6-.4-.2-.9-.3-1.4-.5-.5-.2-1-.4-1.4-.6-.4-.2-.8-.5-1.1-.9-.3-.4-.4-.8-.4-1.4s.3-1.4,1-2,1.6-.8,3-.8,1.1,0,1.6.1c.6,0,1.1.2,1.5.3l-.3,1.6c-.1,0-.3-.1-.5-.2-.2,0-.4-.1-.7-.2-.3,0-.5,0-.8-.1-.3,0-.6,0-.8,0-1.5,0-2.3.4-2.3,1.2s.1.5.4.7c.3.2.6.4,1.1.6.4.2.9.3,1.4.5.5.2,1,.4,1.4.6.4.3.8.6,1.1.9.3.4.4.8.4,1.4,0,.9-.3,1.6-1,2-.7.5-1.8.7-3.3.7s-1.3,0-1.8-.2c-.6-.1-1.1-.3-1.6-.5l.3-1.6c.5.2,1,.4,1.5.6.5.1,1.1.2,1.7.2,1.6,0,2.4-.4,2.4-1.2Z"/>
      </g>
    </g>
  </g>
</svg>